<mxfile host="app.diagrams.net" modified="2023-06-22T17:15:56.112Z" agent="Mozilla/5.0 (Windows NT 10.0; Win64; x64) AppleWebKit/537.36 (KHTML, like Gecko) Chrome/114.0.0.0 Safari/537.36 Edg/114.0.1823.43" version="21.5.0" etag="P10qxAEwmHJcTyEfc5mZ" type="github">
  <diagram name="PÃ¡gina-1" id="BtJ36JvPUmNVYShXYMEE">
    <mxGraphModel>
      <root>
        <mxCell id="0" />
        <mxCell id="1" parent="0" />
      </root>
    </mxGraphModel>
  </diagram>
</mxfile>
